<svg width="128" height="78" viewBox="0 0 128 78" fill="none" xmlns="http://www.w3.org/2000/svg">
<path d="M16.768 72.536C13.5253 72.536 10.6027 71.768 8 70.232C5.39733 68.696 3.43467 66.648 2.112 64.088L5.632 61.016C6.82667 62.9787 8.40533 64.5573 10.368 65.752C12.3733 66.9467 14.528 67.544 16.832 67.544C18.7947 67.544 20.544 67.1173 22.08 66.264C23.616 65.4107 24.832 64.2373 25.728 62.744C26.624 61.208 27.072 59.4587 27.072 57.496C27.072 55.576 26.624 53.8907 25.728 52.44C24.8747 50.9893 23.7013 49.8587 22.208 49.048C20.7573 48.2373 19.1147 47.832 17.28 47.832C15.4453 47.832 13.7173 48.2373 12.096 49.048C10.5173 49.8587 9.216 51.0107 8.192 52.504H3.136L8.256 26.456H30.336V31.64H12.416L9.664 46.104C10.6027 45.1227 11.776 44.3547 13.184 43.8C14.6347 43.2027 16.2347 42.904 17.984 42.904C20.8 42.904 23.3173 43.5227 25.536 44.76C27.7973 45.9973 29.568 47.704 30.848 49.88C32.1707 52.056 32.832 54.5733 32.832 57.432C32.832 60.4187 32.1067 63.0427 30.656 65.304C29.248 67.608 27.328 69.3787 24.896 70.616C22.464 71.896 19.7547 72.536 16.768 72.536ZM51.8305 72.536C48.5878 72.536 45.6652 71.768 43.0625 70.232C40.4598 68.696 38.4972 66.648 37.1745 64.088L40.6945 61.016C41.8892 62.9787 43.4678 64.5573 45.4305 65.752C47.4358 66.9467 49.5905 67.544 51.8945 67.544C53.8572 67.544 55.6065 67.1173 57.1425 66.264C58.6785 65.4107 59.8945 64.2373 60.7905 62.744C61.6865 61.208 62.1345 59.4587 62.1345 57.496C62.1345 55.576 61.6865 53.8907 60.7905 52.44C59.9372 50.9893 58.7638 49.8587 57.2705 49.048C55.8198 48.2373 54.1772 47.832 52.3425 47.832C50.5078 47.832 48.7798 48.2373 47.1585 49.048C45.5798 49.8587 44.2785 51.0107 43.2545 52.504H38.1985L43.3185 26.456H65.3985V31.64H47.4785L44.7265 46.104C45.6652 45.1227 46.8385 44.3547 48.2465 43.8C49.6972 43.2027 51.2972 42.904 53.0465 42.904C55.8625 42.904 58.3798 43.5227 60.5985 44.76C62.8598 45.9973 64.6305 47.704 65.9105 49.88C67.2332 52.056 67.8945 54.5733 67.8945 57.432C67.8945 60.4187 67.1692 63.0427 65.7185 65.304C64.3105 67.608 62.3905 69.3787 59.9585 70.616C57.5265 71.896 54.8172 72.536 51.8305 72.536ZM105.965 44.248C105.965 48.0027 105.261 51.352 103.853 54.296C102.445 57.1973 100.525 59.48 98.093 61.144C95.661 62.808 92.8877 63.64 89.773 63.64C86.6583 63.64 83.885 62.808 81.453 61.144C79.021 59.48 77.101 57.1973 75.693 54.296C74.285 51.352 73.581 48.0027 73.581 44.248C73.581 40.4933 74.285 37.1653 75.693 34.264C77.101 31.32 79.021 29.016 81.453 27.352C83.885 25.6453 86.6583 24.792 89.773 24.792C92.8877 24.792 95.661 25.6453 98.093 27.352C100.525 29.016 102.445 31.32 103.853 34.264C105.261 37.1653 105.965 40.4933 105.965 44.248ZM100.269 44.248C100.269 41.432 99.821 38.9573 98.925 36.824C98.029 34.6907 96.7917 33.0267 95.213 31.832C93.6343 30.6373 91.821 30.04 89.773 30.04C87.6823 30.04 85.8477 30.6373 84.269 31.832C82.6903 33.0267 81.453 34.6907 80.557 36.824C79.661 38.9573 79.213 41.432 79.213 44.248C79.213 47.064 79.661 49.5387 80.557 51.672C81.453 53.7627 82.6903 55.4053 84.269 56.6C85.8477 57.7947 87.6823 58.392 89.773 58.392C91.821 58.392 93.6343 57.7947 95.213 56.6C96.7917 55.4053 98.029 53.7627 98.925 51.672C99.821 49.5387 100.269 47.064 100.269 44.248Z" fill="white"/>
<path d="M125.88 12.424V14.536H123.216V17.44H120.84V14.536H118.176V12.424H120.84V9.52H123.216V12.424H125.88Z" fill="#2A4AF4"/>
</svg>
