<svg width="128" height="78" viewBox="0 0 128 78" fill="none" xmlns="http://www.w3.org/2000/svg">
<path d="M35.136 50.136C35.136 52.824 34.3893 55.1707 32.896 57.176C31.4453 59.1813 29.4827 60.7387 27.008 61.848C24.576 62.9573 21.9093 63.512 19.008 63.512C15.9787 63.512 13.2693 62.9147 10.88 61.72C8.49067 60.4827 6.592 58.84 5.184 56.792C3.81867 54.744 3.136 52.44 3.136 49.88C3.136 48.0027 3.56267 46.3173 4.416 44.824C5.26933 43.3307 6.336 42.072 7.616 41.048C8.93867 39.9813 10.2827 39.192 11.648 38.68C10.4107 38.1253 9.25867 37.4 8.192 36.504C7.12533 35.608 6.272 34.5627 5.632 33.368C4.992 32.1733 4.672 30.872 4.672 29.464C4.672 27.544 5.09867 25.8587 5.952 24.408C6.80533 22.9147 7.936 21.656 9.344 20.632C10.752 19.608 12.3093 18.84 14.016 18.328C15.7227 17.816 17.4293 17.56 19.136 17.56C20.8427 17.56 22.5493 17.816 24.256 18.328C25.9627 18.84 27.52 19.608 28.928 20.632C30.3787 21.6133 31.5307 22.8507 32.384 24.344C33.2373 25.7947 33.664 27.48 33.664 29.4C33.664 30.808 33.344 32.1307 32.704 33.368C32.064 34.5627 31.1893 35.608 30.08 36.504C29.0133 37.4 27.84 38.1253 26.56 38.68C28.096 39.2773 29.504 40.1307 30.784 41.24C32.1067 42.3067 33.152 43.5867 33.92 45.08C34.7307 46.5733 35.136 48.2587 35.136 50.136ZM29.44 49.752C29.44 48.3867 29.1413 47.1707 28.544 46.104C27.9467 44.9947 27.136 44.0773 26.112 43.352C25.088 42.584 23.9573 42.008 22.72 41.624C21.5253 41.24 20.3093 41.048 19.072 41.048C17.3653 41.048 15.7227 41.4107 14.144 42.136C12.608 42.8613 11.3493 43.8853 10.368 45.208C9.38667 46.488 8.896 48.024 8.896 49.816C8.896 51.1387 9.19467 52.3333 9.792 53.4C10.3893 54.4667 11.1787 55.384 12.16 56.152C13.184 56.92 14.2933 57.496 15.488 57.88C16.7253 58.264 17.9627 58.456 19.2 58.456C20.9067 58.456 22.528 58.0933 24.064 57.368C25.6427 56.6427 26.9227 55.6187 27.904 54.296C28.928 52.9733 29.44 51.4587 29.44 49.752ZM10.368 29.656C10.368 31.1493 10.816 32.4293 11.712 33.496C12.608 34.5627 13.7387 35.3733 15.104 35.928C16.4693 36.44 17.8133 36.696 19.136 36.696C20.5013 36.696 21.8453 36.4187 23.168 35.864C24.5333 35.3093 25.664 34.4987 26.56 33.432C27.456 32.3653 27.904 31.064 27.904 29.528C27.904 28.0773 27.4773 26.84 26.624 25.816C25.8133 24.792 24.7253 24.0027 23.36 23.448C22.0373 22.8933 20.608 22.616 19.072 22.616C17.5787 22.616 16.1493 22.9147 14.784 23.512C13.4613 24.0667 12.3947 24.8773 11.584 25.944C10.7733 26.968 10.368 28.2053 10.368 29.656ZM74.09 44.248C74.09 48.0027 73.386 51.352 71.978 54.296C70.57 57.1973 68.65 59.48 66.218 61.144C63.786 62.808 61.0127 63.64 57.898 63.64C54.7833 63.64 52.01 62.808 49.578 61.144C47.146 59.48 45.226 57.1973 43.818 54.296C42.41 51.352 41.706 48.0027 41.706 44.248C41.706 40.4933 42.41 37.1653 43.818 34.264C45.226 31.32 47.146 29.016 49.578 27.352C52.01 25.6453 54.7833 24.792 57.898 24.792C61.0127 24.792 63.786 25.6453 66.218 27.352C68.65 29.016 70.57 31.32 71.978 34.264C73.386 37.1653 74.09 40.4933 74.09 44.248ZM68.394 44.248C68.394 41.432 67.946 38.9573 67.05 36.824C66.154 34.6907 64.9167 33.0267 63.338 31.832C61.7593 30.6373 59.946 30.04 57.898 30.04C55.8073 30.04 53.9727 30.6373 52.394 31.832C50.8153 33.0267 49.578 34.6907 48.682 36.824C47.786 38.9573 47.338 41.432 47.338 44.248C47.338 47.064 47.786 49.5387 48.682 51.672C49.578 53.7627 50.8153 55.4053 52.394 56.6C53.9727 57.7947 55.8073 58.392 57.898 58.392C59.946 58.392 61.7593 57.7947 63.338 56.6C64.9167 55.4053 66.154 53.7627 67.05 51.672C67.946 49.5387 68.394 47.064 68.394 44.248ZM113.403 44.248C113.403 48.0027 112.699 51.352 111.291 54.296C109.883 57.1973 107.963 59.48 105.531 61.144C103.099 62.808 100.325 63.64 97.2105 63.64C94.0958 63.64 91.3225 62.808 88.8905 61.144C86.4585 59.48 84.5385 57.1973 83.1305 54.296C81.7225 51.352 81.0185 48.0027 81.0185 44.248C81.0185 40.4933 81.7225 37.1653 83.1305 34.264C84.5385 31.32 86.4585 29.016 88.8905 27.352C91.3225 25.6453 94.0958 24.792 97.2105 24.792C100.325 24.792 103.099 25.6453 105.531 27.352C107.963 29.016 109.883 31.32 111.291 34.264C112.699 37.1653 113.403 40.4933 113.403 44.248ZM107.707 44.248C107.707 41.432 107.259 38.9573 106.363 36.824C105.467 34.6907 104.229 33.0267 102.651 31.832C101.072 30.6373 99.2585 30.04 97.2105 30.04C95.1198 30.04 93.2852 30.6373 91.7065 31.832C90.1278 33.0267 88.8905 34.6907 87.9945 36.824C87.0985 38.9573 86.6505 41.432 86.6505 44.248C86.6505 47.064 87.0985 49.5387 87.9945 51.672C88.8905 53.7627 90.1278 55.4053 91.7065 56.6C93.2852 57.7947 95.1198 58.392 97.2105 58.392C99.2585 58.392 101.072 57.7947 102.651 56.6C104.229 55.4053 105.467 53.7627 106.363 51.672C107.259 49.5387 107.707 47.064 107.707 44.248Z" fill="white"/>
<path d="M125.88 12.424V14.536H123.216V17.44H120.84V14.536H118.176V12.424H120.84V9.52H123.216V12.424H125.88Z" fill="#2A4AF4"/>
</svg>
